Coordinates
version=1
nRows=20
nColumns=38
inDegrees=no

Units are S.I. units (second, meters, Newtons, ...)
If the header above contains a line with 'inDegrees', this indicates whether rotational values are in degrees (yes) or radians (no).

endheader
time	pelvis_tilt	pelvis_list	pelvis_rotation	pelvis_tx	pelvis_ty	pelvis_tz	hip_flexion_r	hip_adduction_r	hip_rotation_r	knee_angle_r	ankle_angle_r	subtalar_angle_r	mtp_angle_r	hip_flexion_l	hip_adduction_l	hip_rotation_l	knee_angle_l	ankle_angle_l	subtalar_angle_l	mtp_angle_l	lumbar_extension	lumbar_bending	lumbar_rotation	arm_flex_r	arm_add_r	arm_rot_r	elbow_flex_r	pro_sup_r	wrist_flex_r	wrist_dev_r	arm_flex_l	arm_add_l	arm_rot_l	elbow_flex_l	pro_sup_l	wrist_flex_l	wrist_dev_l
1.57	-2.82965	1.43932	-1.92975	0.708742	1.15913	1.03344	0.0461703	-0.00267563	0.0739589	1.2878	-0.245495	0	0	0.0414707	0.0820661	-0.291225	0.41951	-0.202774	0	0	-0.37704	-0.0575591	-0.0272029	0.0278308	-0.30409	0.859247	0.402604	1.00335	0	0	-0.153442	-0.328213	0.376315	0.519025	1.07186	0	0
1.58	-2.86404	1.43724	-1.89163	0.707694	1.1676	1.03463	0.0689512	0.00192967	0.077195	1.31075	-0.233976	0	0	0.0270564	0.0802823	-0.289527	0.414497	-0.199315	0	0	-0.381987	-0.0515867	-0.0281094	0.0303863	-0.308315	0.869422	0.407365	0.988587	0	0	-0.149596	-0.322499	0.359812	0.514835	1.09049	0	0
1.59	-2.89447	1.43496	-1.85848	0.706626	1.17583	1.03584	0.0922232	0.00556495	0.0806821	1.32971	-0.226204	0	0	0.011567	0.0793853	-0.288362	0.405298	-0.197872	0	0	-0.387001	-0.0460317	-0.0271693	0.0327778	-0.313355	0.878844	0.412598	0.973793	0	0	-0.141806	-0.324572	0.378889	0.513573	1.07217	0	0
1.6	-2.92405	1.43484	-1.82647	0.70563	1.18407	1.03675	0.117602	0.0101709	0.0839976	1.34487	-0.220196	0	0	-0.000141578	0.0770544	-0.287476	0.401328	-0.194895	0	0	-0.388983	-0.0401432	-0.0265641	0.0339711	-0.316155	0.878545	0.415219	0.97242	0	0	-0.137835	-0.322723	0.377562	0.512648	1.07495	0	0
1.61	-2.9552	1.43567	-1.79317	0.704704	1.19228	1.0375	0.143515	0.0157398	0.0872777	1.35566	-0.217551	0	0	-0.0100187	0.0738087	-0.286586	0.398729	-0.192724	0	0	-0.389649	-0.0340734	-0.0260922	0.0337019	-0.317018	0.867071	0.416246	0.985989	0	0	-0.135121	-0.321523	0.375292	0.513927	1.07385	0	0
1.62	-2.98585	1.43698	-1.7605	0.70381	1.20048	1.03813	0.169426	0.0215412	0.0903289	1.36223	-0.213856	0	0	-0.0190934	0.0703938	-0.285818	0.395899	-0.189901	0	0	-0.389404	-0.0280937	-0.0256764	0.0348965	-0.320024	0.867343	0.41909	0.985229	0	0	-0.132332	-0.321629	0.379648	0.515112	1.07235	0	0
1.63	-3.01594	1.43783	-1.72845	0.702959	1.20864	1.03877	0.19368	0.0274128	0.0934488	1.36339	-0.211523	0	0	-0.0285321	0.0670233	-0.285433	0.393194	-0.187802	0	0	-0.389352	-0.0224246	-0.0260353	0.0365736	-0.322663	0.867932	0.421406	0.984881	0	0	-0.130583	-0.321744	0.382404	0.51688	1.07318	0	0
1.64	-3.04464	1.44079	-1.69877	0.702277	1.21684	1.0392	0.220005	0.0336731	0.0978662	1.36132	-0.208062	0	0	-0.0360756	0.0639078	-0.28393	0.389547	-0.183013	0	0	-0.3869	-0.017107	-0.0252917	0.0390096	-0.327277	0.878398	0.425597	0.974422	0	0	-0.130535	-0.316975	0.364238	0.516293	1.09816	0	0
1.65	-3.07782	1.44163	-1.66446	0.701758	1.22502	1.03979	0.242399	0.0400267	0.101229	1.35388	-0.203302	0	0	-0.0462482	0.0604746	-0.28189	0.385239	-0.179688	0	0	-0.386753	-0.0117646	-0.0240955	0.0373063	-0.328157	0.862259	0.428453	0.990248	0	0	-0.126819	-0.32121	0.384552	0.519347	1.08024	0	0
1.66	-3.1163	1.44162	-1.62429	0.701299	1.23325	1.04043	0.262384	0.0462168	0.102559	1.34198	-0.198811	0	0	-0.0577109	0.0563577	-0.27922	0.379952	-0.177432	0	0	-0.387001	-0.00589991	-0.0246424	0.0389199	-0.329782	0.861437	0.430245	0.991809	0	0	-0.126102	-0.320988	0.38336	0.521726	1.08052	0	0
1.67	3.12745	1.44096	-1.58228	0.70083	1.24155	1.04108	0.280361	0.0515648	0.102316	1.32619	-0.193949	0	0	-0.0703625	0.0521384	-0.275098	0.373074	-0.175407	0	0	-0.387561	0.000275023	-0.0260493	0.0403659	-0.331158	0.860229	0.431911	0.993791	0	0	-0.125599	-0.320602	0.381472	0.523905	1.08092	0	0
1.68	3.08945	1.44002	-1.54093	0.700326	1.24991	1.04168	0.296813	0.0556901	0.100628	1.30683	-0.190787	0	0	-0.0830032	0.0479261	-0.270094	0.366517	-0.173205	0	0	-0.38797	0.00660811	-0.0283708	0.0416791	-0.332148	0.858622	0.433041	0.995856	0	0	-0.125118	-0.320029	0.379393	0.525287	1.08225	0	0
1.69	3.05431	1.43986	-1.50227	0.699764	1.25829	1.04211	0.313355	0.0580881	0.0969586	1.28469	-0.190346	0	0	-0.0940129	0.0439497	-0.266113	0.361357	-0.171355	0	0	-0.386757	0.0127261	-0.031839	0.0478438	-0.335998	0.884844	0.433922	0.969972	0	0	-0.125299	-0.319001	0.376705	0.52611	1.08404	0	0
1.7	3.02363	1.44025	-1.46759	0.699114	1.26666	1.04246	0.329589	0.0581259	0.0900416	1.25991	-0.189041	0	0	-0.104965	0.0411934	-0.259147	0.354416	-0.168455	0	0	-0.385764	0.0185632	-0.0339046	0.043745	-0.333593	0.854402	0.433888	1.00015	0	0	-0.123387	-0.317441	0.375438	0.525693	1.08717	0	0
1.71	2.99574	1.44103	-1.43575	0.698445	1.27499	1.04267	0.345224	0.0562856	0.080204	1.23263	-0.186802	0	0	-0.115604	0.0388951	-0.252748	0.347021	-0.166277	0	0	-0.383441	0.0240373	-0.0373549	0.0482216	-0.336505	0.872511	0.434134	0.981772	0	0	-0.120755	-0.319303	0.390107	0.525829	1.07333	0	0
1.72	2.97076	1.44256	-1.40719	0.697825	1.2833	1.04272	0.360589	0.0526641	0.0675805	1.2028	-0.184611	0	0	-0.125509	0.0370355	-0.247613	0.339486	-0.164628	0	0	-0.380691	0.0287438	-0.0401212	0.0492585	-0.336662	0.870685	0.433226	0.984729	0	0	-0.119052	-0.317973	0.390621	0.5247	1.07444	0	0
1.73	2.94901	1.4448	-1.38236	0.697281	1.29155	1.04262	0.375356	0.0477249	0.0525373	1.17005	-0.182403	0	0	-0.134774	0.0358197	-0.243221	0.331755	-0.163393	0	0	-0.37746	0.0325605	-0.0423316	0.0503935	-0.336539	0.869048	0.431747	0.988372	0	0	-0.117186	-0.316646	0.390397	0.523433	1.07593	0	0
1.74	2.92665	1.44748	-1.35753	0.696814	1.29977	1.04239	0.388849	0.0428572	0.0370652	1.13381	-0.181463	0	0	-0.143279	0.0343077	-0.240876	0.325078	-0.162182	0	0	-0.374017	0.0360374	-0.0435016	0.0511437	-0.337286	0.86752	0.431649	0.989355	0	0	-0.115222	-0.315722	0.391541	0.522594	1.07764	0	0
1.75	2.90229	1.4506	-1.33053	0.69638	1.30802	1.04205	0.40075	0.0386258	0.0217611	1.09401	-0.179906	0	0	-0.151729	0.0328911	-0.237262	0.316824	-0.160566	0	0	-0.369821	0.0394833	-0.0451399	0.0520065	-0.336405	0.863478	0.428847	0.994937	0	0	-0.113898	-0.313977	0.388552	0.521301	1.08281	0	0
1.76	2.8781	1.45372	-1.30368	0.696037	1.31626	1.04165	0.410551	0.0349608	0.00676794	1.05051	-0.17736	0	0	-0.160282	0.0314497	-0.234039	0.308071	-0.159362	0	0	-0.365347	0.0426339	-0.0468507	0.0560401	-0.337313	0.878427	0.425791	0.981691	0	0	-0.110279	-0.318317	0.41132	0.52186	1.06058	0	0
